<?xml version="1.0" standalone="no"?>
<!DOCTYPE svg PUBLIC "-//W3C//DTD SVG 20010904//EN"
 "http://www.w3.org/TR/2001/REC-SVG-20010904/DTD/svg10.dtd">
<svg version="1.0" xmlns="http://www.w3.org/2000/svg"
 width="2048.000000pt" height="2048.000000pt" viewBox="0 0 2048.000000 2048.000000"
 preserveAspectRatio="xMidYMid meet">
<metadata>
Created by potrace 1.11, written by Peter Selinger 2001-2013
</metadata>
<g transform="translate(0.000000,2048.000000) scale(0.100000,-0.100000)"
fill="#000000" stroke="none">
<path d="M4805 20469 c-685 -40 -1381 -229 -2000 -544 -479 -243 -872 -526
-1264 -910 -923 -904 -1456 -2078 -1531 -3369 -14 -247 -14 -10565 0 -10812
42 -718 224 -1397 545 -2029 391 -772 974 -1432 1700 -1927 749 -511 1649
-814 2579 -868 247 -14 10565 -14 10812 0 838 49 1640 295 2347 720 386 232
706 487 1042 831 857 876 1363 2031 1435 3273 14 247 14 10565 0 10812 -42
718 -224 1397 -545 2029 -257 506 -570 932 -986 1341 -892 875 -2039 1381
-3293 1454 -216 12 -10627 11 -10841 -1z m-636 -5481 c11 -35 559 -1798 1217
-3918 718 -2315 1217 -3939 1248 -4065 29 -115 68 -288 87 -382 18 -95 36
-173 39 -173 3 0 20 78 39 173 19 94 57 264 85 377 31 125 531 1740 1276 4128
l1225 3922 710 0 710 0 775 -3092 c963 -3840 920 -3665 994 -4093 l32 -190 8
68 c16 157 85 509 150 767 71 285 1638 6471 1647 6503 l10 37 674 0 675 0 0
-5250 0 -5250 -596 0 -595 0 4 3583 c3 2495 8 3630 16 3741 6 88 10 161 8 162
-1 2 -22 -83 -46 -189 -86 -375 -237 -970 -1047 -4114 l-819 -3183 -105 0
-105 0 -847 3293 c-469 1820 -895 3498 -954 3752 -58 253 -108 462 -111 465
-3 3 -3 -71 1 -165 21 -515 25 -1172 26 -4112 l0 -3233 -595 0 -595 0 -2 3189
-3 3189 -1052 -3186 -1051 -3187 -542 0 -542 0 -1729 5240 c-951 2882 -1729
5243 -1729 5247 0 5 312 8 694 8 l694 0 21 -62z"/>
</g>
</svg>
